<?xml version="1.0" encoding="UTF-8" standalone="no"?>
<!-- Created with Inkscape (http://www.inkscape.org/) -->

<svg
   width="256"
   height="256"
   viewBox="0 0 67.733331 67.733333"
   version="1.1"
   id="svg1"
   xml:space="preserve"
   inkscape:version="1.3.2 (091e20e, 2023-11-25, custom)"
   sodipodi:docname="logo.svg"
   inkscape:export-filename="logo_servus.png"
   inkscape:export-xdpi="96"
   inkscape:export-ydpi="96"
   xmlns:inkscape="http://www.inkscape.org/namespaces/inkscape"
   xmlns:sodipodi="http://sodipodi.sourceforge.net/DTD/sodipodi-0.dtd"
   xmlns="http://www.w3.org/2000/svg"
   xmlns:svg="http://www.w3.org/2000/svg"><sodipodi:namedview
     id="namedview1"
     pagecolor="#ffffff"
     bordercolor="#666666"
     borderopacity="1.0"
     inkscape:showpageshadow="2"
     inkscape:pageopacity="0.0"
     inkscape:pagecheckerboard="0"
     inkscape:deskcolor="#d1d1d1"
     inkscape:document-units="mm"
     inkscape:zoom="1.5004889"
     inkscape:cx="121.2938"
     inkscape:cy="184.60649"
     inkscape:window-width="1918"
     inkscape:window-height="1048"
     inkscape:window-x="0"
     inkscape:window-y="65"
     inkscape:window-maximized="0"
     inkscape:current-layer="layer3" /><defs
     id="defs1" /><g
     inkscape:groupmode="layer"
     id="layer3"
     inkscape:label="Logo"><path
       style="display:inline;fill:#ffffff;stroke:none;stroke-width:0.117619px;stroke-linecap:butt;stroke-linejoin:miter;stroke-opacity:1"
       d="m 11.861648,36.106596 10.974796,-14.411345 2.993126,2.771412 9.866231,-11.529078 8.535952,11.750791 3.990835,-2.106274 7.6491,13.635351 -5.321111,3.436553 -34.476381,-1.219421 z"
       id="path2"
       inkscape:label="BgFill" /><path
       style="fill:#3a6b4a;fill-opacity:1;stroke-width:0.398092"
       d="M 31.960418,43.617683 C 31.641801,43.597012 30.551649,43.487422 29.537864,43.374148 26.913348,43.080899 14.617206,41.719361 13.422584,41.589718 7.4597628,40.942629 6.6613895,40.814853 6.3378361,40.455829 6.1213263,40.215578 6.0119707,39.765524 6.101536,39.483331 6.1405716,39.360339 6.7001379,38.5867 7.3450148,37.764139 c 2.6138425,-3.334045 4.5833002,-5.874278 6.2014582,-7.99873 0.938021,-1.231511 2.066852,-2.713091 2.508513,-3.2924 0.441661,-0.579308 1.602932,-2.111195 2.580603,-3.404199 1.002241,-1.325496 1.904641,-2.416618 2.068886,-2.501551 0.743891,-0.384685 1.773537,0.01947 2.907332,1.141182 0.472182,0.467149 0.798235,0.715603 0.856699,0.652808 0.09024,-0.09694 4.993063,-6.371152 7.255891,-9.285487 0.593505,-0.764385 1.184341,-1.463503 1.312971,-1.553595 0.315174,-0.220762 1.003829,-0.206837 1.45258,0.02938 0.398745,0.209882 0.954507,0.86515 3.714963,4.380122 4.413234,5.619506 4.955758,6.295746 5.093211,6.348489 0.08005,0.03073 0.40908,-0.143114 0.731176,-0.3863 1.247925,-0.942192 2.171726,-1.230487 2.917497,-0.910485 0.481194,0.206475 0.627361,0.380776 4.294357,5.120996 1.814992,2.346197 4.629892,5.962546 6.255325,8.036335 4.244679,5.415528 4.166608,5.309589 4.166608,5.654023 0,0.509285 -0.43124,0.904908 -1.129684,1.036378 -1.150316,0.216525 -3.200962,0.472041 -6.927954,0.863237 -2.496338,0.26202 -7.67881,0.823464 -12.165455,1.317945 -5.601389,0.617346 -7.463018,0.736235 -9.479574,0.605405 z m 17.417256,-6.164166 c -0.04383,-0.07241 -0.277593,-0.439749 -0.519426,-0.816293 -0.608832,-0.948003 -1.354144,-2.449581 -1.616337,-3.256467 -0.329191,-1.01304 -0.597363,-2.516863 -0.471303,-2.642925 0.0701,-0.0701 0.592375,0.158696 1.564099,0.685176 0.80237,0.434726 1.473585,0.790411 1.491589,0.790411 0.018,0 -0.374325,-0.817613 -0.87183,-1.816919 -0.497509,-0.999303 -1.036254,-2.101302 -1.197211,-2.448889 -0.160957,-0.347582 -0.678457,-1.434641 -1.149991,-2.41568 l -0.857338,-1.783709 -0.501866,0.835752 c -0.276027,0.459661 -0.670779,1.096438 -0.877235,1.415059 -0.462981,0.714516 -1.529536,2.775962 -2.34329,4.529127 -0.66625,1.435371 -0.93905,1.815778 -1.268321,1.768638 -0.230546,-0.03299 -0.498798,-0.491556 -3.422176,-5.8498 -0.418687,-0.767411 -0.797773,-1.417862 -0.842419,-1.445453 -0.04464,-0.02759 -0.852568,0.18858 -1.795383,0.480382 -1.125692,0.348402 -1.749844,0.49492 -1.81799,0.426775 -0.09395,-0.09395 0.886453,-2.099436 2.363355,-4.834453 l 0.412725,-0.764301 -0.861886,-2.869533 c -0.474032,-1.578245 -0.882543,-2.905887 -0.907811,-2.950318 -0.02529,-0.04443 -0.477345,0.500644 -1.004631,1.211279 -0.894311,1.205288 -3.15196,4.047401 -6.38113,8.033093 -1.903946,2.349994 -4.863651,5.568074 -4.863651,5.288227 0,-0.03046 0.379513,-0.677769 0.843363,-1.438471 l 0.843362,-1.383097 -0.968308,-1.359083 c -0.532568,-0.747498 -1.005251,-1.336253 -1.050403,-1.308347 -0.04515,0.02791 -0.68639,0.890259 -1.424971,1.916338 -1.790245,2.487113 -3.901157,5.276136 -6.055668,8.000995 -0.973359,1.231027 -1.752728,2.238235 -1.73193,2.238235 0.08459,0 2.22883,-0.979184 3.897501,-1.779824 0.978239,-0.469369 1.819551,-0.853395 1.869583,-0.853395 0.05003,0 0.09097,0.05376 0.09097,0.119476 0,0.193996 0.92674,2.092624 1.020275,2.090246 0.04712,-0.0013 0.962536,-0.850625 2.034256,-1.887613 l 1.948578,-1.885439 1.571713,-0.719264 1.571712,-0.719268 1.519114,-1.895915 c 0.835517,-1.042755 1.559555,-1.910891 1.608986,-1.929196 0.101044,-0.03742 0.09867,-0.01608 -0.272733,2.454395 -0.454952,3.026213 -0.694711,3.871802 -1.742144,6.144182 -0.168751,0.366106 -0.306825,0.68938 -0.306825,0.718382 0,0.02898 0.485828,-0.368573 1.079618,-0.88349 0.593791,-0.514918 2.074973,-1.758522 3.29152,-2.763573 1.216546,-1.005043 2.482255,-2.057773 2.812699,-2.339399 l 0.600791,-0.512046 2.453733,1.741703 c 3.073932,2.181933 3.50431,2.526518 4.437443,3.552877 l 0.754835,0.830243 1.10595,-0.06778 c 1.098979,-0.06735 1.109938,-0.06566 1.737925,0.268586 0.347582,0.185002 1.366636,0.718008 2.264561,1.184456 0.89793,0.466454 1.677623,0.888474 1.732658,0.937832 0.15195,0.136271 0.291586,0.107185 0.201295,-0.04192 z"
       id="path1"
       inkscape:label="Mountain" /><text
       xml:space="preserve"
       style="font-style:normal;font-variant:normal;font-weight:normal;font-stretch:normal;font-size:13.5061px;line-height:1.25;font-family:'Cascadia Code PL';-inkscape-font-specification:'Cascadia Code PL, Normal';font-variant-ligatures:normal;font-variant-caps:normal;font-variant-numeric:normal;font-variant-east-asian:normal;display:none;fill:#0c3473;fill-opacity:1;stroke:none;stroke-width:0.337654"
       x="7.144567"
       y="56.13932"
       id="text1"
       inkscape:label="servus"><tspan
         sodipodi:role="line"
         id="tspan1"
         style="font-style:normal;font-variant:normal;font-weight:normal;font-stretch:normal;font-size:13.5061px;font-family:'Cascadia Code PL';-inkscape-font-specification:'Cascadia Code PL, Normal';font-variant-ligatures:normal;font-variant-caps:normal;font-variant-numeric:normal;font-variant-east-asian:normal;fill:#0c3473;fill-opacity:1;stroke-width:0.337654"
         x="7.144567"
         y="56.13932">servus!</tspan></text></g><g
     inkscape:groupmode="layer"
     id="layer2"
     inkscape:label="Fixed Text"
     style="display:inline"><path
       d="m 10.560661,56.271216 c 2.426877,0 3.468851,-0.646288 3.468851,-2.149897 0,-1.121112 -0.659477,-1.635504 -2.123517,-1.991622 l -1.292576,-0.316549 c -0.600125,-0.145085 -0.8837001,-0.276981 -0.8837001,-0.685857 0,-0.606719 0.6594771,-0.857321 2.2290341,-0.857321 0.514392,0 1.028785,0.02638 1.741021,0.09233 l 0.145085,-1.213438 c -0.619909,-0.09233 -1.17387,-0.131896 -1.846537,-0.131896 -2.6115314,0 -3.7194536,0.646288 -3.7194536,2.176276 0,1.055164 0.6265036,1.483824 2.0048116,1.833347 l 1.609125,0.408877 c 0.461634,0.118705 0.685857,0.29017 0.685857,0.712235 0,0.60672 -0.60672,0.870511 -2.018001,0.870511 -0.6330988,0 -1.3057659,-0.06595 -2.2290344,-0.211033 L 8.173352,56.073373 c 0.6199088,0.145085 1.3321446,0.197843 2.387309,0.197843 z m 9.061221,0 c 0.527582,0 1.213438,-0.02638 2.04438,-0.184654 l -0.171464,-1.226628 c -0.58034,0.118706 -1.134302,0.184654 -1.714642,0.184654 -1.404687,0 -2.288387,-0.613314 -2.532393,-1.78059 h 4.721859 c 0.02638,-0.27698 0.03957,-0.56715 0.03957,-0.896889 0,-2.176276 -1.081543,-3.350146 -2.967649,-3.350146 -2.004811,0 -3.152302,1.332145 -3.152302,3.613937 0,2.34774 1.345334,3.640316 3.732643,3.640316 z m -2.426878,-4.075571 c 0.112112,-1.246413 0.778184,-1.952054 1.859727,-1.952054 1.055164,0 1.688262,0.699046 1.688262,1.952054 z m 9.259065,0.936458 c 0,-1.872916 0.58034,-2.92808 1.767399,-2.92808 0.672667,0 0.962838,0.422065 0.962838,1.437661 h 1.384902 c 0,-1.846537 -0.619908,-2.624721 -2.057569,-2.624721 -1.213439,0 -1.846538,0.633099 -1.925675,1.925674 H 26.42769 L 26.190278,49.148859 H 23.7634 v 1.226628 h 1.292576 v 4.537205 h -1.556367 v 1.226628 h 4.669101 v -1.226628 h -1.714641 z m 7.45869,3.007217 h 1.859726 l 2.49942,-6.990461 h -1.490419 l -1.879511,5.803402 h -0.118706 l -1.879511,-5.803402 h -1.490419 z m 8.157737,0.131896 c 0.936458,0 1.609125,-0.527582 1.833348,-1.47723 h 0.1253 l 0.09892,1.411282 2.242224,-0.06595 V 55.018209 L 45.407452,54.873124 V 49.148859 H 44.00936 v 3.759022 c 0,1.523393 -0.527582,2.110328 -1.543177,2.110328 -0.824347,0 -1.305766,-0.448445 -1.305766,-1.253008 v -4.616342 h -1.398092 v 4.616342 c 0,1.595936 0.837536,2.506015 2.308171,2.506015 z m 8.058814,0 c 2.426877,0 3.468852,-0.646288 3.468852,-2.149897 0,-1.121112 -0.659478,-1.635504 -2.123518,-1.991622 l -1.292576,-0.316549 c -0.600124,-0.145085 -0.8837,-0.276981 -0.8837,-0.685857 0,-0.606719 0.659478,-0.857321 2.229034,-0.857321 0.514393,0 1.028785,0.02638 1.741021,0.09233 l 0.145085,-1.213438 c -0.619909,-0.09233 -1.17387,-0.131896 -1.846537,-0.131896 -2.611531,0 -3.719453,0.646288 -3.719453,2.176276 0,1.055164 0.626503,1.483824 2.004811,1.833347 l 1.609125,0.408877 c 0.461635,0.118705 0.685857,0.29017 0.685857,0.712235 0,0.60672 -0.606719,0.870511 -2.018001,0.870511 -0.633099,0 -1.305766,-0.06595 -2.229034,-0.211033 l -0.158275,1.266197 c 0.619909,0.145085 1.332145,0.197843 2.387309,0.197843 z m 7.874162,-3.139113 h 1.134301 l 0.131896,-6.423311 h -1.371714 z m 0.58034,3.139113 c 0.540772,0 0.976027,-0.435255 0.976027,-0.976027 0,-0.540771 -0.435255,-0.976027 -0.976027,-0.976027 -0.540771,0 -0.976027,0.435256 -0.976027,0.976027 0,0.540772 0.435256,0.976027 0.976027,0.976027 z"
       id="text2"
       style="font-size:13.5061px;line-height:1.25;font-family:'Cascadia Code PL';-inkscape-font-specification:'Cascadia Code PL, Normal';fill:#3a6b4a;stroke-width:0.337654;fill-opacity:1"
       inkscape:label="servus"
       aria-label="servus!" /></g></svg>
